# Blender v2.82 (sub 7) OBJ File: 'Carrot.blend'
# www.blender.org
mtllib Carrot.mtl
o Carrot_Cylinder.005
v -0.082080 0.270862 0.008062
v -0.048057 1.872372 -0.414665
v -0.036119 0.255308 -0.043193
v 0.028899 1.846329 -0.500485
v 0.033151 0.255308 -0.029670
v 0.144886 1.846329 -0.477844
v 0.056462 0.270862 0.035106
v 0.183917 1.872372 -0.369382
v 0.010501 0.286416 0.086360
v 0.106961 1.898416 -0.283562
v -0.058769 0.286416 0.072838
v -0.009026 1.898416 -0.306203
v -0.014308 -2.165243 -0.358918
v -0.014308 -0.284723 -0.614680
v 0.213859 -2.165242 -0.284782
v 0.364192 -0.284723 -0.491698
v 0.354873 -2.165242 -0.090692
v 0.598117 -0.284723 -0.169727
v 0.354873 -2.165242 0.149216
v 0.598117 -0.284723 0.228251
v 0.213858 -2.165242 0.343306
v 0.364191 -0.284723 0.550222
v -0.014308 -2.165242 0.417442
v -0.014308 -0.284723 0.673204
v -0.242474 -2.165242 0.343306
v -0.392807 -0.284723 0.550222
v -0.383489 -2.165242 0.149216
v -0.626733 -0.284723 0.228251
v -0.383489 -2.165242 -0.090692
v -0.626733 -0.284723 -0.169727
v -0.242474 -2.165243 -0.284782
v -0.392807 -0.284723 -0.491698
v -0.014308 -3.108197 -0.116530
v 0.071387 -3.108197 -0.088687
v 0.124349 -3.108197 -0.015791
v 0.124349 -3.108197 0.074314
v 0.071387 -3.108197 0.147211
v -0.014308 -3.108197 0.175054
v -0.100003 -3.108197 0.147210
v -0.152965 -3.108197 0.074314
v -0.152965 -3.108197 -0.015791
v -0.100003 -3.108197 -0.088687
v -0.014308 -3.346982 0.029262
v -0.014308 -1.311973 -0.508971
v 0.302057 -1.311973 -0.406178
v 0.497582 -1.311973 -0.137061
v 0.497582 -1.311973 0.195585
v 0.302057 -1.311973 0.464702
v -0.014308 -1.311973 0.567495
v -0.330673 -1.311973 0.464701
v -0.526198 -1.311973 0.195585
v -0.526198 -1.311973 -0.137061
v -0.330673 -1.311973 -0.406178
v -0.014308 0.385645 -0.492011
v -0.014308 0.471315 -0.383940
v 0.228566 0.471315 -0.305025
v 0.292089 0.385645 -0.392457
v 0.378670 0.471315 -0.098424
v 0.481452 0.385645 -0.131820
v 0.378670 0.471315 0.156948
v 0.481452 0.385645 0.190344
v 0.228566 0.471315 0.363549
v 0.292089 0.385645 0.450981
v -0.014308 0.471315 0.442463
v -0.014308 0.385645 0.550535
v -0.257182 0.471315 0.363549
v -0.320705 0.385645 0.450981
v -0.407286 0.471315 0.156948
v -0.510068 0.385645 0.190344
v -0.407286 0.471315 -0.098424
v -0.510068 0.385645 -0.131820
v -0.257182 0.471315 -0.305025
v -0.320704 0.385645 -0.392457
v -0.014308 0.275631 -0.041316
v 0.004397 2.005334 -0.193058
v 0.046815 0.275631 -0.006027
v 0.113947 2.005334 -0.129810
v 0.046815 0.275631 0.064551
v 0.113947 2.005334 -0.003313
v -0.014308 0.275631 0.099840
v 0.004397 2.005334 0.059936
v -0.075430 0.275631 0.064551
v -0.105152 2.005333 -0.003313
v -0.075430 0.275631 -0.006027
v -0.105152 2.005334 -0.129810
v -0.006485 0.270862 -0.041316
v 0.369397 1.999281 -0.184737
v 0.052625 0.255308 -0.006027
v 0.468371 1.973238 -0.125649
v 0.052625 0.255308 0.064551
v 0.468371 1.973238 -0.007473
v -0.006485 0.270862 0.099840
v 0.369397 1.999281 0.051615
v -0.065595 0.286416 0.064551
v 0.270423 2.025325 -0.007473
v -0.065595 0.286416 -0.006027
v 0.270423 2.025325 -0.125649
v 0.056398 0.270862 0.035830
v 0.127923 1.760316 0.233410
v 0.022165 0.255308 0.095558
v 0.070603 1.734272 0.333419
v -0.048402 0.255308 0.096812
v -0.047555 1.734272 0.335519
v -0.084736 0.270862 0.038338
v -0.108392 1.760316 0.237610
v -0.050503 0.286416 -0.021390
v -0.051072 1.786359 0.137601
v 0.020064 0.286416 -0.022644
v 0.067086 1.786359 0.135502
v -0.045198 0.270862 0.093202
v -0.275942 1.583408 -0.040282
v -0.089174 0.255308 0.040235
v -0.349576 1.557364 -0.128968
v -0.065660 0.255308 -0.026311
v -0.310205 1.557364 -0.240393
v 0.001830 0.270862 -0.039890
v -0.197199 1.583408 -0.263131
v 0.045806 0.286416 0.013076
v -0.123565 1.609452 -0.174444
v 0.022292 0.286416 0.079622
v -0.162936 1.609452 -0.063020
vt 1.000000 0.925597
vt 0.833333 0.500000
vt 1.000000 0.500000
vt 0.833333 0.925597
vt 0.666667 0.500000
vt 0.500000 0.925597
vt 0.500000 0.500000
vt 0.333333 0.925597
vt 0.333333 0.500000
vt 0.055826 0.137894
vt 0.250000 0.025787
vt 0.444174 0.137894
vt 0.166667 0.500000
vt 0.166667 0.925597
vt -0.000000 0.500000
vt 0.542154 0.130000
vt 0.542154 0.370000
vt 0.957846 0.370000
vt 0.666667 0.925597
vt 0.444174 0.362106
vt 0.250000 0.474213
vt 0.055826 0.362106
vt -0.000000 0.925597
vt 0.750000 0.490000
vt 0.957846 0.130000
vt 0.750000 0.010000
vt 1.000000 0.500000
vt 0.833333 1.000000
vt 0.833333 0.500000
vt 0.666667 1.000000
vt 0.666667 0.500000
vt 0.500000 1.000000
vt 0.500000 0.500000
vt 0.333333 0.500000
vt 0.042154 0.130000
vt 0.250000 0.010000
vt 0.457846 0.130000
vt 0.333333 1.000000
vt 0.166667 0.500000
vt 0.166667 1.000000
vt -0.000000 0.500000
vt 0.750000 0.010000
vt 0.542154 0.130000
vt 0.542154 0.370000
vt 1.000000 1.000000
vt 0.457846 0.370000
vt 0.250000 0.490000
vt 0.042154 0.370000
vt -0.000000 1.000000
vt 0.750000 0.490000
vt 0.957846 0.370000
vt 0.957846 0.130000
vt 1.000000 0.500000
vt 0.833333 0.925597
vt 0.833333 0.500000
vt 0.666667 0.925597
vt 0.666667 0.500000
vt 0.500000 0.500000
vt 0.500000 0.925597
vt 0.333333 0.500000
vt 0.055826 0.137894
vt 0.250000 0.025787
vt 0.444174 0.137894
vt 0.333333 0.925597
vt 0.166667 0.500000
vt -0.000000 0.925597
vt -0.000000 0.500000
vt 0.750000 0.010000
vt 0.542154 0.130000
vt 0.542154 0.370000
vt 1.000000 0.925597
vt 0.444174 0.362106
vt 0.250000 0.474213
vt 0.055826 0.362106
vt 0.166667 0.925597
vt 0.750000 0.490000
vt 0.957846 0.370000
vt 0.957846 0.130000
vt 1.000000 0.500000
vt 0.833333 0.925597
vt 0.833333 0.500000
vt 0.666667 0.925597
vt 0.666667 0.500000
vt 0.500000 0.500000
vt 0.500000 0.925597
vt 0.333333 0.500000
vt 0.250000 0.474213
vt 0.055826 0.137894
vt 0.444174 0.137894
vt 0.333333 0.925597
vt 0.166667 0.500000
vt -0.000000 0.925597
vt -0.000000 0.500000
vt 0.542154 0.130000
vt 0.542154 0.370000
vt 0.957846 0.370000
vt 1.000000 0.925597
vt 0.444174 0.362106
vt 0.055826 0.362106
vt 0.250000 0.025787
vt 0.166667 0.925597
vt 0.750000 0.490000
vt 0.957846 0.130000
vt 0.750000 0.010000
vt 1.000000 0.500000
vt 0.833333 0.925597
vt 0.833333 0.500000
vt 0.666667 0.500000
vt 0.666667 0.925597
vt 0.500000 0.500000
vt 0.500000 0.925597
vt 0.333333 0.500000
vt 0.055826 0.137894
vt 0.250000 0.025787
vt 0.444174 0.137894
vt 0.166667 0.925597
vt 0.166667 0.500000
vt -0.000000 0.925597
vt -0.000000 0.500000
vt 0.542154 0.130000
vt 0.542154 0.370000
vt 0.957846 0.370000
vt 1.000000 0.925597
vt 0.333333 0.925597
vt 0.444174 0.362106
vt 0.250000 0.474213
vt 0.055826 0.362106
vt 0.750000 0.490000
vt 0.957846 0.130000
vt 0.750000 0.010000
vt 1.000000 1.000000
vt 0.900000 0.750000
vt 1.000000 0.750000
vt 0.900000 1.000000
vt 0.800000 0.750000
vt 0.800000 1.000000
vt 0.700000 0.750000
vt 0.700000 1.000000
vt 0.600000 0.750000
vt 0.600000 1.000000
vt 0.500000 0.750000
vt 0.500000 1.000000
vt 0.400000 0.750000
vt 0.400000 1.000000
vt 0.300000 0.750000
vt 0.200000 1.000000
vt 0.200000 0.750000
vt 0.300000 1.000000
vt 0.200000 1.000000
vt 0.100000 1.000000
vt 0.100000 0.750000
vt -0.000000 0.750000
vt 0.600000 0.500000
vt 0.700000 0.500000
vt 0.700000 0.500000
vt 0.300000 0.500000
vt 0.200000 0.500000
vt 0.500000 0.500000
vt 1.000000 0.500000
vt 0.900000 0.500000
vt 1.000000 0.500000
vt 0.800000 0.500000
vt 0.800000 0.500000
vt 0.900000 0.500000
vt -0.000000 0.500000
vt 0.100000 0.500000
vt 0.100000 0.500000
vt 0.200000 0.500000
vt 0.300000 0.500000
vt 0.400000 0.500000
vt 0.400000 0.500000
vt 0.500000 0.500000
vt 0.500000 0.500000
vt 0.600000 0.500000
vt -0.000000 0.500000
vt -0.000000 1.000000
vt 0.100000 1.000000
vt -0.000000 1.000000
vt 0.300000 1.000000
vt 0.400000 1.000000
vt 0.500000 1.000000
vt 0.063156 0.310709
vt 0.134524 0.091061
vt 0.365476 0.091061
vt 0.600000 1.000000
vt 0.700000 1.000000
vt 0.800000 1.000000
vt 0.900000 1.000000
vt 0.990929 1.000000
vt 0.909071 1.000000
vt 0.809071 1.000000
vt 0.790929 1.000000
vt 0.709071 1.000000
vt 0.690929 1.000000
vt 0.609071 1.000000
vt 0.509071 1.000000
vt 0.409071 1.000000
vt 0.309071 1.000000
vt 0.290929 1.000000
vt 0.209071 1.000000
vt 0.109071 1.000000
vt 0.009071 1.000000
vt 0.436844 0.310709
vt 0.365476 0.408939
vt 0.250000 0.446459
vt 0.134524 0.408939
vt 0.063156 0.189291
vt 0.250000 0.053541
vt 0.436844 0.189291
vt 1.000000 1.000000
vt 0.890929 1.000000
vt 0.590929 1.000000
vt 0.490929 1.000000
vt 0.390929 1.000000
vt 0.190929 1.000000
vt 0.090929 1.000000
vn -0.9825 -0.0278 -0.1843
vn -0.3315 -0.2481 -0.9102
vn 0.6495 -0.2481 -0.7187
vn 0.9797 -0.0278 0.1987
vn 0.3287 0.1925 0.9246
vn 0.0488 0.9671 -0.2498
vn -0.6523 0.1925 0.7331
vn -0.0488 -0.9671 0.2498
vn -0.0036 -0.0874 -0.9962
vn 0.8573 -0.0698 -0.5100
vn 0.8709 -0.0686 -0.4867
vn 0.8742 -0.0149 0.4853
vn 0.8573 -0.0131 0.5147
vn 0.0035 0.0230 0.9997
vn -0.0034 0.0231 0.9997
vn -0.8592 0.0053 0.5116
vn -0.0000 1.0000 0.0000
vn -0.8727 0.0042 0.4882
vn -0.8735 -0.0497 -0.4843
vn -0.8565 -0.0515 -0.5136
vn 0.0000 -1.0000 0.0000
vn 0.0033 -0.0874 -0.9962
vn -0.0067 -0.0812 -0.9967
vn 0.8221 -0.2351 -0.5185
vn 0.8440 -0.2377 -0.4808
vn 0.8504 -0.1851 0.4925
vn 0.8427 -0.1827 0.5065
vn 0.0202 0.0235 0.9995
vn -0.0067 0.0293 0.9995
vn -0.8352 0.1829 0.5187
vn 0.2545 0.9671 -0.0000
vn -0.8569 0.1855 0.4810
vn -0.8612 0.1327 -0.4907
vn -0.0334 -0.0754 -0.9966
vn -0.2545 -0.9671 -0.0000
vn -0.8535 0.1302 -0.5045
vn 0.9987 -0.0494 0.0110
vn 0.5346 -0.1512 0.8314
vn 0.4941 -0.1538 0.8557
vn -0.4975 -0.1379 0.8564
vn -0.4694 -0.1404 0.8717
vn -0.9983 -0.0229 0.0530
vn -0.9996 -0.0124 -0.0261
vn -0.5321 0.0890 -0.8420
vn 0.0045 0.9671 0.2544
vn -0.4919 0.0916 -0.8658
vn 0.4940 0.0758 -0.8661
vn 0.9969 -0.0389 -0.0680
vn -0.0045 -0.9671 -0.2544
vn 0.4662 0.0783 -0.8812
vn -0.3591 0.0317 0.9328
vn -0.9692 -0.1708 0.1774
vn -0.9659 -0.1675 0.1975
vn -0.6408 -0.2402 -0.7291
vn -0.5956 -0.2380 -0.7672
vn 0.3385 -0.1077 -0.9348
vn 0.3736 -0.1002 -0.9222
vn 0.9802 0.1014 -0.1700
vn -0.2399 0.9671 -0.0848
vn 0.6563 0.1711 0.7349
vn 0.6114 0.1689 0.7731
vn -0.3236 0.0392 0.9454
vn 0.2399 -0.9671 0.0848
vn 0.9769 0.0981 -0.1899
vn 0.0000 0.0382 -0.9993
vn 0.5822 -0.1369 -0.8014
vn 0.0000 -0.1369 -0.9906
vn 0.5874 0.0382 -0.8084
vn 0.9421 -0.1369 -0.3061
vn 0.9504 0.0382 -0.3088
vn 0.9421 -0.1369 0.3061
vn 0.9504 0.0382 0.3088
vn 0.5822 -0.1369 0.8014
vn 0.5874 0.0382 0.8084
vn -0.0000 -0.1369 0.9906
vn 0.0000 0.0382 0.9993
vn -0.5822 -0.1369 0.8014
vn -0.5874 0.0382 0.8084
vn -0.9421 -0.1369 0.3061
vn -0.9504 0.0382 -0.3088
vn -0.9421 -0.1369 -0.3061
vn -0.9504 0.0382 0.3088
vn -0.8310 0.4863 -0.2700
vn -0.5874 0.0382 -0.8084
vn -0.5822 -0.1369 -0.8014
vn 0.5747 -0.2097 0.7910
vn 0.8800 -0.3792 0.2859
vn 0.9299 -0.2097 0.3021
vn -0.8800 -0.3792 0.2859
vn -0.8800 -0.3792 -0.2859
vn -0.0000 -0.2097 -0.9778
vn 0.5439 -0.3792 -0.7486
vn 0.0000 -0.3792 -0.9253
vn 0.8800 -0.3792 -0.2859
vn 0.9299 -0.2097 -0.3021
vn 0.5747 -0.2097 -0.7910
vn -0.5439 -0.3792 -0.7486
vn -0.5747 -0.2097 -0.7910
vn -0.9299 -0.2097 -0.3021
vn -0.9299 -0.2097 0.3021
vn -0.5747 -0.2097 0.7910
vn -0.5439 -0.3792 0.7486
vn -0.0000 -0.3792 0.9253
vn 0.0000 -0.2097 0.9778
vn 0.5439 -0.3792 0.7486
vn -0.5136 0.4863 -0.7069
vn -0.0000 0.4863 -0.8738
vn -0.8310 0.4863 0.2700
vn -0.5136 0.4863 0.7069
vn -0.0000 0.4863 0.8738
vn -0.3660 0.9230 -0.1189
vn -0.2262 0.9230 0.3114
vn 0.2262 0.9230 0.3114
vn 0.5136 0.4863 0.7069
vn 0.8310 0.4863 0.2700
vn 0.8310 0.4863 -0.2700
vn 0.5136 0.4863 -0.7069
vn -0.0000 0.9230 -0.3849
vn 0.2262 0.9230 -0.3114
vn 0.3660 0.9230 -0.1189
vn 0.3660 0.9230 0.1189
vn -0.0000 0.9230 0.3849
vn -0.3660 0.9230 0.1189
vn -0.2262 0.9230 -0.3114
usemtl Green_Carrot
s 1
f 2/1/1 3/2/2 1/3/1
f 4/4/2 5/5/3 3/2/2
f 5/5/3 8/6/4 7/7/4
f 7/7/4 10/8/5 9/9/5
f 10/10/6 8/11/6 6/12/6
f 10/8/5 11/13/7 9/9/5
f 12/14/7 1/15/1 11/13/7
f 9/16/8 11/17/8 3/18/8
f 2/1/1 4/4/2 3/2/2
f 4/4/2 6/19/3 5/5/3
f 5/5/3 6/19/3 8/6/4
f 7/7/4 8/6/4 10/8/5
f 6/12/6 4/20/6 2/21/6
f 2/21/6 12/22/6 6/12/6
f 12/22/6 10/10/6 6/12/6
f 10/8/5 12/14/7 11/13/7
f 12/14/7 2/23/1 1/15/1
f 11/17/8 1/24/8 3/18/8
f 3/18/8 5/25/8 7/26/8
f 7/26/8 9/16/8 3/18/8
s 3
f 74/27/9 77/28/10 76/29/11
f 76/29/11 79/30/12 78/31/13
f 78/31/13 81/32/14 80/33/15
f 81/32/14 82/34/16 80/33/15
f 83/35/17 81/36/17 79/37/17
f 83/38/18 84/39/19 82/34/16
f 85/40/20 74/41/9 84/39/19
f 80/42/21 82/43/21 84/44/21
f 74/27/9 75/45/22 77/28/10
f 76/29/11 77/28/10 79/30/12
f 78/31/13 79/30/12 81/32/14
f 81/32/14 83/38/18 82/34/16
f 79/37/17 77/46/17 83/35/17
f 77/46/17 75/47/17 83/35/17
f 75/47/17 85/48/17 83/35/17
f 83/38/18 85/40/20 84/39/19
f 85/40/20 75/49/22 74/41/9
f 84/44/21 74/50/21 76/51/21
f 76/51/21 78/52/21 84/44/21
f 78/52/21 80/42/21 84/44/21
s 4
f 86/53/23 89/54/24 88/55/25
f 88/55/25 91/56/26 90/57/27
f 91/56/26 92/58/28 90/57/27
f 93/59/29 94/60/30 92/58/28
f 95/61/31 93/62/31 91/63/31
f 95/64/32 96/65/33 94/60/30
f 96/65/33 87/66/34 86/67/23
f 92/68/35 94/69/35 96/70/35
f 86/53/23 87/71/34 89/54/24
f 88/55/25 89/54/24 91/56/26
f 91/56/26 93/59/29 92/58/28
f 93/59/29 95/64/32 94/60/30
f 91/63/31 89/72/31 87/73/31
f 87/73/31 97/74/31 91/63/31
f 97/74/31 95/61/31 91/63/31
f 95/64/32 97/75/36 96/65/33
f 96/65/33 97/75/36 87/66/34
f 96/70/35 86/76/35 88/77/35
f 88/77/35 90/78/35 96/70/35
f 90/78/35 92/68/35 96/70/35
s 5
f 98/79/37 101/80/38 100/81/39
f 100/81/39 103/82/40 102/83/41
f 103/82/40 104/84/42 102/83/41
f 105/85/43 106/86/44 104/84/42
f 99/87/45 107/88/45 103/89/45
f 107/90/46 108/91/47 106/86/44
f 108/91/47 99/92/48 98/93/37
f 106/94/49 108/95/49 100/96/49
f 98/79/37 99/97/48 101/80/38
f 100/81/39 101/80/38 103/82/40
f 103/82/40 105/85/43 104/84/42
f 105/85/43 107/90/46 106/86/44
f 103/89/45 101/98/45 99/87/45
f 99/87/45 109/99/45 107/88/45
f 107/88/45 105/100/45 103/89/45
f 107/90/46 109/101/50 108/91/47
f 108/91/47 109/101/50 99/92/48
f 108/95/49 98/102/49 100/96/49
f 100/96/49 102/103/49 104/104/49
f 104/104/49 106/94/49 100/96/49
s 6
f 110/105/51 113/106/52 112/107/53
f 113/106/52 114/108/54 112/107/53
f 115/109/55 116/110/56 114/108/54
f 117/111/57 118/112/58 116/110/56
f 119/113/59 117/114/59 115/115/59
f 118/112/58 121/116/60 120/117/61
f 120/117/61 111/118/62 110/119/51
f 118/120/63 120/121/63 112/122/63
f 110/105/51 111/123/62 113/106/52
f 113/106/52 115/109/55 114/108/54
f 115/109/55 117/111/57 116/110/56
f 117/111/57 119/124/64 118/112/58
f 115/115/59 113/125/59 119/113/59
f 113/125/59 111/126/59 119/113/59
f 111/126/59 121/127/59 119/113/59
f 118/112/58 119/124/64 121/116/60
f 120/117/61 121/116/60 111/118/62
f 120/121/63 110/128/63 112/122/63
f 112/122/63 114/129/63 116/130/63
f 116/130/63 118/120/63 112/122/63
usemtl Orange_Carrot
s 2
f 14/131/65 45/132/66 44/133/67
f 16/134/68 46/135/69 45/132/66
f 18/136/70 47/137/71 46/135/69
f 20/138/72 48/139/73 47/137/71
f 22/140/74 49/141/75 48/139/73
f 24/142/76 50/143/77 49/141/75
f 26/144/78 51/145/79 50/143/77
f 51/145/79 30/146/80 52/147/81
f 28/148/82 71/149/83 30/146/80
f 52/147/81 32/150/84 53/151/85
f 32/150/84 44/152/67 53/151/85
f 21/153/86 36/154/87 19/155/88
f 40/156/89 41/157/90 43/158/21
f 13/159/91 34/160/92 33/161/93
f 19/155/88 35/162/94 17/163/95
f 15/164/96 35/162/94 34/160/92
f 13/165/91 42/166/97 31/167/98
f 31/167/98 41/157/90 29/168/99
f 29/168/99 40/156/89 27/169/100
f 25/170/101 40/156/89 39/171/102
f 25/170/101 38/172/103 23/173/104
f 23/173/104 37/174/105 21/153/86
f 37/174/105 38/172/103 43/158/21
f 34/160/92 35/162/94 43/158/21
f 41/157/90 42/166/97 43/158/21
f 38/172/103 39/171/102 43/158/21
f 35/162/94 36/154/87 43/158/21
f 42/166/97 33/175/93 43/158/21
f 39/171/102 40/156/89 43/158/21
f 36/154/87 37/174/105 43/158/21
f 33/161/93 34/160/92 43/158/21
f 14/176/65 73/177/106 54/178/107
f 26/144/78 69/179/108 28/148/82
f 24/142/76 67/180/109 26/144/78
f 22/140/74 65/181/110 24/142/76
f 70/182/111 66/183/112 62/184/113
f 20/138/72 63/185/114 22/140/74
f 18/136/70 61/186/115 20/138/72
f 16/134/68 59/187/116 18/136/70
f 32/150/84 71/149/83 73/177/106
f 31/167/98 44/152/67 13/165/91
f 29/168/99 53/151/85 31/167/98
f 27/169/100 52/147/81 29/168/99
f 50/143/77 27/169/100 25/170/101
f 49/141/75 25/170/101 23/173/104
f 21/153/86 49/141/75 23/173/104
f 47/137/71 21/153/86 19/155/88
f 46/135/69 19/155/88 17/163/95
f 45/132/66 17/163/95 15/164/96
f 44/133/67 15/164/96 13/159/91
f 57/188/117 55/189/118 56/190/119
f 57/188/117 58/191/120 59/187/116
f 61/186/115 58/192/120 60/193/121
f 63/185/114 60/194/121 62/195/113
f 63/185/114 64/196/122 65/181/110
f 65/181/110 66/197/112 67/180/109
f 67/180/109 68/198/123 69/179/108
f 71/149/83 68/199/123 70/200/111
f 71/149/83 72/201/124 73/177/106
f 73/177/106 55/202/118 54/178/107
f 14/131/65 57/188/117 16/134/68
f 14/131/65 16/134/68 45/132/66
f 16/134/68 18/136/70 46/135/69
f 18/136/70 20/138/72 47/137/71
f 20/138/72 22/140/74 48/139/73
f 22/140/74 24/142/76 49/141/75
f 24/142/76 26/144/78 50/143/77
f 26/144/78 28/148/82 51/145/79
f 51/145/79 28/148/82 30/146/80
f 28/148/82 69/179/108 71/149/83
f 52/147/81 30/146/80 32/150/84
f 32/150/84 14/176/65 44/152/67
f 21/153/86 37/174/105 36/154/87
f 13/159/91 15/164/96 34/160/92
f 19/155/88 36/154/87 35/162/94
f 15/164/96 17/163/95 35/162/94
f 13/165/91 33/175/93 42/166/97
f 31/167/98 42/166/97 41/157/90
f 29/168/99 41/157/90 40/156/89
f 25/170/101 27/169/100 40/156/89
f 25/170/101 39/171/102 38/172/103
f 23/173/104 38/172/103 37/174/105
f 14/176/65 32/150/84 73/177/106
f 26/144/78 67/180/109 69/179/108
f 24/142/76 65/181/110 67/180/109
f 22/140/74 63/185/114 65/181/110
f 58/203/120 56/204/119 55/205/118
f 55/205/118 72/206/124 70/182/111
f 70/182/111 68/207/123 66/183/112
f 66/183/112 64/208/122 62/184/113
f 62/184/113 60/209/121 70/182/111
f 60/209/121 58/203/120 70/182/111
f 58/203/120 55/205/118 70/182/111
f 20/138/72 61/186/115 63/185/114
f 18/136/70 59/187/116 61/186/115
f 16/134/68 57/188/117 59/187/116
f 32/150/84 30/146/80 71/149/83
f 31/167/98 53/151/85 44/152/67
f 29/168/99 52/147/81 53/151/85
f 27/169/100 51/145/79 52/147/81
f 50/143/77 51/145/79 27/169/100
f 49/141/75 50/143/77 25/170/101
f 21/153/86 48/139/73 49/141/75
f 47/137/71 48/139/73 21/153/86
f 46/135/69 47/137/71 19/155/88
f 45/132/66 46/135/69 17/163/95
f 44/133/67 45/132/66 15/164/96
f 57/188/117 54/210/107 55/189/118
f 57/188/117 56/211/119 58/191/120
f 61/186/115 59/187/116 58/192/120
f 63/185/114 61/186/115 60/194/121
f 63/185/114 62/212/113 64/196/122
f 65/181/110 64/213/122 66/197/112
f 67/180/109 66/214/112 68/198/123
f 71/149/83 69/179/108 68/199/123
f 71/149/83 70/215/111 72/201/124
f 73/177/106 72/216/124 55/202/118
f 14/131/65 54/210/107 57/188/117
