# Blender v2.82 (sub 7) OBJ File: 'Potato.blend'
# www.blender.org
mtllib Potato.mtl
o Potato_Cube.001
v -0.555082 -0.423669 0.817949
v -0.555082 0.423669 0.817949
v -0.555082 -0.423669 -0.817949
v -0.555082 0.423669 -0.817949
v 0.555082 -0.423669 0.817949
v 0.555082 0.423669 0.817949
v 0.555082 -0.423669 -0.817949
v 0.555082 0.423669 -0.817949
v -0.663974 -0.506782 0.000000
v -0.663974 0.000000 0.969834
v -0.663975 0.506782 0.000000
v -0.663975 0.000000 -0.969834
v 0.000000 -0.506782 -0.978670
v 0.000000 0.506782 -0.978670
v 0.663974 0.000000 -0.969834
v 0.663974 -0.506782 -0.000000
v 0.663975 0.506782 0.000000
v 0.663975 0.000000 0.969834
v -0.000000 -0.506782 0.978670
v -0.000000 0.506782 0.978670
v -0.912280 0.000000 0.000000
v -0.000000 0.000000 -1.288242
v 0.912280 0.000000 -0.000000
v 0.000000 0.000000 1.288242
v 0.000000 -0.696302 0.000000
v 0.000000 0.696302 0.000000
v -0.630102 -0.480928 -0.491960
v -0.630102 -0.480929 0.491960
v -0.630102 -0.254105 0.922954
v -0.630102 0.254105 0.922954
v -0.630102 0.480929 0.491960
v -0.630102 0.480928 -0.491960
v -0.630102 0.254105 -0.922954
v -0.630102 -0.254105 -0.922954
v 0.332923 -0.480928 -0.928279
v -0.332923 -0.480929 -0.928279
v -0.332923 0.480929 -0.928279
v 0.332923 0.480928 -0.928279
v 0.630102 0.254105 -0.922954
v 0.630102 -0.254105 -0.922954
v 0.630102 -0.480928 0.491960
v 0.630102 -0.480929 -0.491960
v 0.630102 0.480928 -0.491960
v 0.630102 0.480928 0.491960
v 0.630102 0.254105 0.922954
v 0.630102 -0.254105 0.922954
v -0.332923 -0.480928 0.928279
v 0.332923 -0.480929 0.928279
v 0.332923 0.480929 0.928279
v -0.332923 0.480929 0.928279
v -0.850301 0.000000 0.537655
v -0.850301 0.277230 0.000000
v -0.850301 0.000000 -0.537655
v -0.850301 -0.277230 0.000000
v -0.363221 0.000000 -1.215109
v 0.000000 0.277230 -1.219053
v 0.363221 0.000000 -1.215109
v -0.000000 -0.277230 -1.219053
v 0.850301 0.000000 -0.537655
v 0.850301 0.277230 0.000000
v 0.850301 0.000000 0.537655
v 0.850301 -0.277230 0.000000
v 0.363221 0.000000 1.215109
v 0.000000 0.277230 1.219053
v -0.363221 0.000000 1.215109
v 0.000000 -0.277230 1.219053
v 0.000000 -0.648997 -0.544440
v 0.363221 -0.648997 0.000000
v 0.000000 -0.648997 0.544440
v -0.363221 -0.648997 0.000000
v 0.000000 0.648997 -0.544440
v -0.363221 0.648997 0.000000
v 0.000000 0.648997 0.544440
v 0.363221 0.648997 0.000000
v -0.796189 -0.266886 0.516461
v -0.796189 0.266886 0.516461
v -0.796189 0.266886 -0.516461
v -0.796189 -0.266886 -0.516461
v -0.349669 -0.266886 -1.150048
v -0.349669 0.266886 -1.150048
v 0.349669 0.266886 -1.150048
v 0.349669 -0.266886 -1.150048
v 0.796189 -0.266886 -0.516461
v 0.796189 0.266886 -0.516461
v 0.796189 0.266886 0.516461
v 0.796189 -0.266886 0.516461
v 0.349669 -0.266886 1.150048
v 0.349669 0.266886 1.150048
v -0.349669 0.266886 1.150048
v -0.349669 -0.266886 1.150048
v -0.349669 -0.607695 -0.521056
v 0.349669 -0.607695 -0.521056
v 0.349669 -0.607695 0.521056
v -0.349669 -0.607695 0.521056
v 0.349669 0.607695 -0.521056
v -0.349669 0.607695 -0.521056
v -0.349669 0.607695 0.521056
v 0.349669 0.607695 0.521056
vt 0.375000 0.000000
vt 0.437500 0.062500
vt 0.375000 0.062500
vt 0.437500 0.000000
vt 0.500000 0.062500
vt 0.500000 0.125000
vt 0.437500 0.125000
vt 0.375000 0.125000
vt 0.562500 0.000000
vt 0.500000 0.000000
vt 0.625000 0.000000
vt 0.562500 0.062500
vt 0.625000 0.062500
vt 0.562500 0.125000
vt 0.562554 0.187425
vt 0.500000 0.187440
vt 0.625109 0.187392
vt 0.625868 0.249132
vt 0.562934 0.249397
vt 0.500000 0.249518
vt 0.374892 0.187392
vt 0.437446 0.187425
vt 0.437066 0.249397
vt 0.374132 0.249132
vt 0.371636 0.309136
vt 0.435818 0.310230
vt 0.500000 0.310728
vt 0.432292 0.368297
vt 0.364583 0.364583
vt 0.564182 0.310230
vt 0.628364 0.309136
vt 0.635417 0.364583
vt 0.567708 0.368297
vt 0.500000 0.369985
vt 0.500000 0.427240
vt 0.574231 0.422975
vt 0.650174 0.412326
vt 0.578957 0.480544
vt 0.500000 0.487172
vt 0.425769 0.422975
vt 0.349826 0.412326
vt 0.421043 0.480544
vt 0.324653 0.449653
vt 0.425664 0.550664
vt 0.355544 0.546043
vt 0.500000 0.553952
vt 0.500000 0.625000
vt 0.428952 0.625000
vt 0.362172 0.625000
vt 0.675347 0.449653
vt 0.574336 0.550664
vt 0.644456 0.546043
vt 0.571048 0.625000
vt 0.574336 0.699336
vt 0.500000 0.696048
vt 0.644456 0.703957
vt 0.675347 0.800347
vt 0.578957 0.769456
vt 0.500000 0.762828
vt 0.355544 0.703957
vt 0.425664 0.699336
vt 0.421043 0.769456
vt 0.324653 0.800347
vt 0.349826 0.837674
vt 0.425769 0.827025
vt 0.500000 0.822760
vt 0.432292 0.881703
vt 0.364583 0.885417
vt 0.574231 0.827025
vt 0.650174 0.837674
vt 0.635417 0.885417
vt 0.567708 0.881703
vt 0.500000 0.880016
vt 0.500000 0.939212
vt 0.564128 0.939694
vt 0.628255 0.940755
vt 0.562500 1.000000
vt 0.500000 1.000000
vt 0.435872 0.939694
vt 0.371745 0.940755
vt 0.437500 1.000000
vt 0.375000 1.000000
vt 0.125000 0.500000
vt 0.185306 0.560872
vt 0.125000 0.562500
vt 0.184245 0.496745
vt 0.243297 0.557292
vt 0.244985 0.625000
vt 0.185788 0.625000
vt 0.125000 0.625000
vt 0.287326 0.474826
vt 0.239583 0.489583
vt 0.297975 0.550769
vt 0.302240 0.625000
vt 0.297975 0.699231
vt 0.243297 0.692708
vt 0.287326 0.775174
vt 0.239583 0.760417
vt 0.125000 0.687500
vt 0.185306 0.689128
vt 0.184245 0.753255
vt 0.125000 0.750000
vt 0.702025 0.550769
vt 0.712674 0.474826
vt 0.756703 0.557292
vt 0.755016 0.625000
vt 0.697760 0.625000
vt 0.637828 0.625000
vt 0.815755 0.496745
vt 0.760417 0.489583
vt 0.875000 0.500000
vt 0.814694 0.560872
vt 0.875000 0.562500
vt 0.814212 0.625000
vt 0.814694 0.689128
vt 0.756703 0.692708
vt 0.875000 0.687500
vt 0.875000 0.750000
vt 0.815755 0.753255
vt 0.760417 0.760417
vt 0.702025 0.699231
vt 0.712674 0.775174
vt 0.625000 0.125000
vt 0.625000 1.000000
vt 0.875000 0.625000
vn -0.5643 -0.7150 0.4127
vn -0.8831 -0.4126 0.2233
vn -0.6113 -0.7723 0.1726
vn -0.7288 -0.4030 0.5535
vn -0.9667 0.0000 0.2560
vn -1.0000 0.0000 0.0000
vn -0.9026 -0.4303 0.0000
vn -0.6197 -0.7848 0.0000
vn -0.7288 0.4030 0.5535
vn -0.7931 0.0000 0.6091
vn -0.5643 0.7150 0.4127
vn -0.8831 0.4126 0.2233
vn -0.6113 0.7723 0.1726
vn -0.9026 0.4303 0.0000
vn -0.8831 0.4126 -0.2233
vn -0.9667 0.0000 -0.2560
vn -0.6113 0.7723 -0.1726
vn -0.5643 0.7150 -0.4127
vn -0.7288 0.4030 -0.5535
vn -0.7931 0.0000 -0.6091
vn -0.6113 -0.7723 -0.1726
vn -0.8831 -0.4126 -0.2233
vn -0.7288 -0.4030 -0.5535
vn -0.5643 -0.7150 -0.4127
vn -0.2910 -0.8178 -0.4964
vn -0.3804 -0.4671 -0.7982
vn -0.4206 0.0000 -0.9072
vn 0.0000 -0.4927 -0.8702
vn 0.0000 -0.8521 -0.5233
vn -0.3804 0.4671 -0.7982
vn -0.2910 0.8178 -0.4964
vn 0.0000 0.8521 -0.5233
vn 0.0000 0.4927 -0.8702
vn 0.0000 0.0000 -1.0000
vn 0.4206 0.0000 -0.9072
vn 0.3804 0.4671 -0.7982
vn 0.2910 0.8178 -0.4964
vn 0.7288 0.4030 -0.5535
vn 0.7931 0.0000 -0.6091
vn 0.3804 -0.4671 -0.7982
vn 0.2910 -0.8178 -0.4964
vn 0.7288 -0.4030 -0.5535
vn 0.5643 -0.7150 -0.4127
vn 0.8831 -0.4126 -0.2233
vn 0.6113 -0.7723 -0.1726
vn 0.9667 0.0000 -0.2560
vn 1.0000 0.0000 0.0000
vn 0.9026 -0.4303 0.0000
vn 0.6197 -0.7848 0.0000
vn 0.5643 0.7150 -0.4127
vn 0.8831 0.4126 -0.2233
vn 0.6113 0.7723 -0.1726
vn 0.9026 0.4303 0.0000
vn 0.8831 0.4126 0.2233
vn 0.9667 0.0000 0.2560
vn 0.6113 0.7723 0.1726
vn 0.5643 0.7150 0.4127
vn 0.7288 0.4030 0.5535
vn 0.7931 0.0000 0.6091
vn 0.6113 -0.7723 0.1726
vn 0.8831 -0.4126 0.2233
vn 0.7288 -0.4030 0.5535
vn 0.5643 -0.7150 0.4127
vn 0.2910 -0.8178 0.4964
vn 0.3804 -0.4671 0.7982
vn 0.4206 0.0000 0.9072
vn 0.0000 -0.4927 0.8702
vn 0.0000 -0.8521 0.5233
vn 0.3804 0.4671 0.7982
vn 0.2910 0.8178 0.4964
vn 0.0000 0.8521 0.5233
vn 0.0000 0.4927 0.8702
vn 0.0000 0.0000 1.0000
vn -0.4206 0.0000 0.9072
vn -0.3804 0.4671 0.7982
vn -0.2910 0.8178 0.4964
vn -0.3804 -0.4671 0.7982
vn -0.2910 -0.8178 0.4964
vn -0.2707 -0.9447 -0.1849
vn 0.0000 -0.9797 -0.2004
vn 0.0000 -1.0000 0.0000
vn -0.2804 -0.9599 0.0000
vn 0.2707 -0.9447 -0.1849
vn 0.2804 -0.9599 0.0000
vn 0.2707 -0.9447 0.1849
vn 0.0000 -0.9797 0.2004
vn -0.2707 -0.9447 0.1849
vn 0.2707 0.9447 -0.1849
vn 0.0000 0.9797 -0.2004
vn 0.0000 1.0000 0.0000
vn 0.2804 0.9599 0.0000
vn 0.6197 0.7848 0.0000
vn -0.2707 0.9447 -0.1849
vn -0.2804 0.9599 0.0000
vn -0.2707 0.9447 0.1849
vn 0.0000 0.9797 0.2004
vn 0.2707 0.9447 0.1849
vn -0.6197 0.7848 0.0000
usemtl DarkYellow_Potato
s 1
f 1/1/1 75/2/2 28/3/3
f 29/4/4 51/5/5 75/2/2
f 75/2/2 21/6/6 54/7/7
f 28/3/3 54/7/7 9/8/8
f 30/9/9 51/5/5 10/10/10
f 2/11/11 76/12/12 30/9/9
f 31/13/13 52/14/14 76/12/12
f 76/12/12 21/6/6 51/5/5
f 21/6/6 77/15/15 53/16/16
f 52/14/14 32/17/17 77/15/15
f 77/15/15 4/18/18 33/19/19
f 53/16/16 33/19/19 12/20/20
f 54/7/7 27/21/21 9/8/8
f 21/6/6 78/22/22 54/7/7
f 53/16/16 34/23/23 78/22/22
f 78/22/22 3/24/24 27/21/21
f 34/23/23 36/25/25 3/24/24
f 12/20/20 79/26/26 34/23/23
f 55/27/27 58/28/28 79/26/26
f 79/26/26 13/29/29 36/25/25
f 12/20/20 80/30/30 55/27/27
f 33/19/19 37/31/31 80/30/30
f 80/30/30 14/32/32 56/33/33
f 55/27/27 56/33/33 22/34/34
f 56/33/33 57/35/35 22/34/34
f 14/32/32 81/36/36 56/33/33
f 38/37/37 39/38/38 81/36/36
f 81/36/36 15/39/39 57/35/35
f 13/29/29 82/40/40 35/41/41
f 58/28/28 57/35/35 82/40/40
f 82/40/40 15/39/39 40/42/42
f 35/41/41 40/42/42 7/43/43
f 7/43/43 83/44/44 42/45/45
f 40/42/42 59/46/46 83/44/44
f 83/44/44 23/47/47 62/48/48
f 42/45/45 62/48/48 16/49/49
f 39/38/38 59/46/46 15/39/39
f 8/50/50 84/51/51 39/38/38
f 43/52/52 60/53/53 84/51/51
f 84/51/51 23/47/47 59/46/46
f 23/47/47 85/54/54 61/55/55
f 60/53/53 44/56/56 85/54/54
f 85/54/54 6/57/57 45/58/58
f 61/55/55 45/58/58 18/59/59
f 62/48/48 41/60/60 16/49/49
f 23/47/47 86/61/61 62/48/48
f 61/55/55 46/62/62 86/61/61
f 86/61/61 5/63/63 41/60/60
f 46/62/62 48/64/64 5/63/63
f 18/59/59 87/65/65 46/62/62
f 63/66/66 66/67/67 87/65/65
f 87/65/65 19/68/68 48/64/64
f 18/59/59 88/69/69 63/66/66
f 45/58/58 49/70/70 88/69/69
f 88/69/69 20/71/71 64/72/72
f 63/66/66 64/72/72 24/73/73
f 64/72/72 65/74/74 24/73/73
f 20/71/71 89/75/75 64/72/72
f 50/76/76 30/77/9 89/75/75
f 89/75/75 10/78/10 65/74/74
f 19/68/68 90/79/77 47/80/78
f 66/67/67 65/74/74 90/79/77
f 90/79/77 10/78/10 29/81/4
f 47/80/78 29/81/4 1/82/1
f 3/83/24 91/84/79 27/85/21
f 36/86/25 67/87/80 91/84/79
f 91/84/79 25/88/81 70/89/82
f 27/85/21 70/89/82 9/90/8
f 35/91/41 67/87/80 13/92/29
f 7/43/43 92/93/83 35/91/41
f 42/45/45 68/94/84 92/93/83
f 92/93/83 25/88/81 67/87/80
f 25/88/81 93/95/85 69/96/86
f 68/94/84 41/60/60 93/95/85
f 93/95/85 5/63/63 48/97/64
f 69/96/86 48/97/64 19/98/68
f 70/89/82 28/99/3 9/90/8
f 25/88/81 94/100/87 70/89/82
f 69/96/86 47/101/78 94/100/87
f 94/100/87 1/102/1 28/99/3
f 8/50/50 95/103/88 43/52/52
f 38/104/37 71/105/89 95/103/88
f 95/103/88 26/106/90 74/107/91
f 43/52/52 74/107/91 17/108/92
f 37/109/31 71/105/89 14/110/32
f 4/111/18 96/112/93 37/109/31
f 32/113/17 72/114/94 96/112/93
f 96/112/93 26/106/90 71/105/89
f 26/106/90 97/115/95 73/116/96
f 72/114/94 31/117/13 97/115/95
f 97/115/95 2/118/11 50/119/76
f 73/116/96 50/119/76 20/120/71
f 74/107/91 44/56/56 17/108/92
f 26/106/90 98/121/97 74/107/91
f 73/116/96 49/122/70 98/121/97
f 98/121/97 6/57/57 44/56/56
f 1/1/1 29/4/4 75/2/2
f 29/4/4 10/10/10 51/5/5
f 75/2/2 51/5/5 21/6/6
f 28/3/3 75/2/2 54/7/7
f 30/9/9 76/12/12 51/5/5
f 2/11/11 31/13/13 76/12/12
f 31/13/13 11/123/98 52/14/14
f 76/12/12 52/14/14 21/6/6
f 21/6/6 52/14/14 77/15/15
f 52/14/14 11/123/98 32/17/17
f 77/15/15 32/17/17 4/18/18
f 53/16/16 77/15/15 33/19/19
f 54/7/7 78/22/22 27/21/21
f 21/6/6 53/16/16 78/22/22
f 53/16/16 12/20/20 34/23/23
f 78/22/22 34/23/23 3/24/24
f 34/23/23 79/26/26 36/25/25
f 12/20/20 55/27/27 79/26/26
f 55/27/27 22/34/34 58/28/28
f 79/26/26 58/28/28 13/29/29
f 12/20/20 33/19/19 80/30/30
f 33/19/19 4/18/18 37/31/31
f 80/30/30 37/31/31 14/32/32
f 55/27/27 80/30/30 56/33/33
f 56/33/33 81/36/36 57/35/35
f 14/32/32 38/37/37 81/36/36
f 38/37/37 8/50/50 39/38/38
f 81/36/36 39/38/38 15/39/39
f 13/29/29 58/28/28 82/40/40
f 58/28/28 22/34/34 57/35/35
f 82/40/40 57/35/35 15/39/39
f 35/41/41 82/40/40 40/42/42
f 7/43/43 40/42/42 83/44/44
f 40/42/42 15/39/39 59/46/46
f 83/44/44 59/46/46 23/47/47
f 42/45/45 83/44/44 62/48/48
f 39/38/38 84/51/51 59/46/46
f 8/50/50 43/52/52 84/51/51
f 43/52/52 17/108/92 60/53/53
f 84/51/51 60/53/53 23/47/47
f 23/47/47 60/53/53 85/54/54
f 60/53/53 17/108/92 44/56/56
f 85/54/54 44/56/56 6/57/57
f 61/55/55 85/54/54 45/58/58
f 62/48/48 86/61/61 41/60/60
f 23/47/47 61/55/55 86/61/61
f 61/55/55 18/59/59 46/62/62
f 86/61/61 46/62/62 5/63/63
f 46/62/62 87/65/65 48/64/64
f 18/59/59 63/66/66 87/65/65
f 63/66/66 24/73/73 66/67/67
f 87/65/65 66/67/67 19/68/68
f 18/59/59 45/58/58 88/69/69
f 45/58/58 6/57/57 49/70/70
f 88/69/69 49/70/70 20/71/71
f 63/66/66 88/69/69 64/72/72
f 64/72/72 89/75/75 65/74/74
f 20/71/71 50/76/76 89/75/75
f 50/76/76 2/124/11 30/77/9
f 89/75/75 30/77/9 10/78/10
f 19/68/68 66/67/67 90/79/77
f 66/67/67 24/73/73 65/74/74
f 90/79/77 65/74/74 10/78/10
f 47/80/78 90/79/77 29/81/4
f 3/83/24 36/86/25 91/84/79
f 36/86/25 13/92/29 67/87/80
f 91/84/79 67/87/80 25/88/81
f 27/85/21 91/84/79 70/89/82
f 35/91/41 92/93/83 67/87/80
f 7/43/43 42/45/45 92/93/83
f 42/45/45 16/49/49 68/94/84
f 92/93/83 68/94/84 25/88/81
f 25/88/81 68/94/84 93/95/85
f 68/94/84 16/49/49 41/60/60
f 93/95/85 41/60/60 5/63/63
f 69/96/86 93/95/85 48/97/64
f 70/89/82 94/100/87 28/99/3
f 25/88/81 69/96/86 94/100/87
f 69/96/86 19/98/68 47/101/78
f 94/100/87 47/101/78 1/102/1
f 8/50/50 38/104/37 95/103/88
f 38/104/37 14/110/32 71/105/89
f 95/103/88 71/105/89 26/106/90
f 43/52/52 95/103/88 74/107/91
f 37/109/31 96/112/93 71/105/89
f 4/111/18 32/113/17 96/112/93
f 32/113/17 11/125/98 72/114/94
f 96/112/93 72/114/94 26/106/90
f 26/106/90 72/114/94 97/115/95
f 72/114/94 11/125/98 31/117/13
f 97/115/95 31/117/13 2/118/11
f 73/116/96 97/115/95 50/119/76
f 74/107/91 98/121/97 44/56/56
f 26/106/90 73/116/96 98/121/97
f 73/116/96 20/120/71 49/122/70
f 98/121/97 49/122/70 6/57/57
